<svg width="16" height="16" viewBox="0 0 16 16" fill="none" xmlns="http://www.w3.org/2000/svg">
<path d="M14.6667 0H1.33333C0.596667 0 0 0.596667 0 1.33333V14.6667C0 15.4033 0.596667 16 1.33333 16H8.66667V10H6.66667V7.33333H8.66667V5.60867C8.66667 3.542 9.92867 2.41667 11.7727 2.41667C12.656 2.41667 13.4147 2.48267 13.636 2.512V4.672L12.3573 4.67267C11.3547 4.67267 11.1607 5.14933 11.1607 5.848V7.33333H14.1207L13.454 10H11.1607V16H14.6667C15.4033 16 16 15.4033 16 14.6667V1.33333C16 0.596667 15.4033 0 14.6667 0Z" fill="white"/>
</svg>
