<svg width="16" height="16" viewBox="0 0 16 16" fill="none" xmlns="http://www.w3.org/2000/svg">
<path d="M8 1.44133C5.864 1.44133 5.61067 1.44933 4.76733 1.488C3.85667 1.52933 3.012 1.712 2.362 2.362C1.712 3.012 1.52933 3.85667 1.488 4.76733C1.44933 5.61067 1.44133 5.864 1.44133 8C1.44133 10.136 1.44933 10.3893 1.488 11.2327C1.52933 12.1433 1.712 12.988 2.362 13.638C3.012 14.288 3.85667 14.4707 4.76733 14.512C5.61067 14.5507 5.864 14.5587 8 14.5587C10.136 14.5587 10.3893 14.5507 11.2327 14.512C12.1433 14.4707 12.988 14.288 13.638 13.638C14.288 12.988 14.4707 12.1433 14.512 11.2327C14.5507 10.3893 14.5587 10.136 14.5587 8C14.5587 5.864 14.5507 5.61067 14.512 4.76733C14.4707 3.85667 14.288 3.012 13.638 2.362C12.988 1.712 12.1433 1.52933 11.2327 1.488C10.3893 1.44933 10.136 1.44133 8 1.44133ZM8 0C10.1727 0 10.4453 0.00933333 11.2987 0.048C12.5987 0.107333 13.7407 0.426 14.6573 1.34267C15.574 2.25933 15.8927 3.40133 15.952 4.70133C15.9907 5.55467 16 5.82733 16 8C16 10.1727 15.9907 10.4453 15.952 11.2987C15.8927 12.5987 15.574 13.7407 14.6573 14.6573C13.7407 15.574 12.5987 15.8927 11.2987 15.952C10.4453 15.9907 10.1727 16 8 16C5.82733 16 5.55467 15.9907 4.70133 15.952C3.40133 15.8927 2.25933 15.574 1.34267 14.6573C0.426 13.7407 0.107333 12.5987 0.048 11.2987C0.00933333 10.4453 0 10.1727 0 8C0 5.82733 0.00933333 5.55467 0.048 4.70133C0.107333 3.40133 0.426 2.25933 1.34267 1.34267C2.25933 0.426 3.40133 0.107333 4.70133 0.048C5.55467 0.00933333 5.82733 0 8 0ZM8 3.892C10.2687 3.892 12.108 5.73133 12.108 8C12.108 10.2687 10.2687 12.108 8 12.108C5.73133 12.108 3.892 10.2687 3.892 8C3.892 5.73133 5.73133 3.892 8 3.892ZM8 10.6667C9.47267 10.6667 10.6667 9.47267 10.6667 8C10.6667 6.52733 9.47267 5.33333 8 5.33333C6.52733 5.33333 5.33333 6.52733 5.33333 8C5.33333 9.47267 6.52733 10.6667 8 10.6667ZM12.2707 4.68933C11.7405 4.68933 11.3107 4.25953 11.3107 3.72933C11.3107 3.19914 11.7405 2.76933 12.2707 2.76933C12.8009 2.76933 13.2307 3.19914 13.2307 3.72933C13.2307 4.25953 12.8009 4.68933 12.2707 4.68933Z" fill="white"/>
</svg>
