<svg width="131" height="24" viewBox="0 0 131 24" fill="none" xmlns="http://www.w3.org/2000/svg">
<path d="M7.4289 4.77348H0V0.397789H20.2305V4.77348H12.8016V23.6022H7.4289V4.77348Z" fill="black"/>
<path d="M34.0402 24C31.6303 24 29.4525 23.4807 27.5068 22.442C25.5832 21.4033 24.0687 19.9779 22.9632 18.1657C21.8798 16.3315 21.3382 14.2762 21.3382 12C21.3382 9.72376 21.8798 7.67956 22.9632 5.8674C24.0687 4.03315 25.5832 2.59668 27.5068 1.55801C29.4525 0.519337 31.6303 0 34.0402 0C36.4502 0 38.617 0.519337 40.5405 1.55801C42.4641 2.59668 43.9786 4.03315 45.0841 5.8674C46.1896 7.67956 46.7424 9.72376 46.7424 12C46.7424 14.2762 46.1896 16.3315 45.0841 18.1657C43.9786 19.9779 42.4641 21.4033 40.5405 22.442C38.617 23.4807 36.4502 24 34.0402 24ZM34.0402 19.4254C35.4111 19.4254 36.6492 19.116 37.7547 18.4972C38.8602 17.8564 39.7225 16.9724 40.3416 15.8453C40.9827 14.7182 41.3033 13.4365 41.3033 12C41.3033 10.5635 40.9827 9.28177 40.3416 8.1547C39.7225 7.02762 38.8602 6.1547 37.7547 5.53591C36.6492 4.89503 35.4111 4.57459 34.0402 4.57459C32.6694 4.57459 31.4313 4.89503 30.3258 5.53591C29.2203 6.1547 28.347 7.02762 27.7058 8.1547C27.0867 9.28177 26.7772 10.5635 26.7772 12C26.7772 13.4365 27.0867 14.7182 27.7058 15.8453C28.347 16.9724 29.2203 17.8564 30.3258 18.4972C31.4313 19.116 32.6694 19.4254 34.0402 19.4254Z" fill="black"/>
<path d="M71.9061 23.6022L71.8729 9.67956L65.041 21.1492H62.62L55.8212 9.9779V23.6022H50.7802V0.397789H55.2242L63.9134 14.8177L72.4699 0.397789H76.8808L76.9472 23.6022H71.9061Z" fill="black"/>
<path d="M93.6979 24C91.288 24 89.1101 23.4807 87.1645 22.442C85.2409 21.4033 83.7264 19.9779 82.6209 18.1657C81.5375 16.3315 80.9958 14.2762 80.9958 12C80.9958 9.72376 81.5375 7.67956 82.6209 5.8674C83.7264 4.03315 85.2409 2.59668 87.1645 1.55801C89.1101 0.519337 91.288 0 93.6979 0C96.1079 0 98.2747 0.519337 100.198 1.55801C102.122 2.59668 103.636 4.03315 104.742 5.8674C105.847 7.67956 106.4 9.72376 106.4 12C106.4 14.2762 105.847 16.3315 104.742 18.1657C103.636 19.9779 102.122 21.4033 100.198 22.442C98.2747 23.4807 96.1079 24 93.6979 24ZM93.6979 19.4254C95.0688 19.4254 96.3069 19.116 97.4124 18.4972C98.5179 17.8564 99.3802 16.9724 99.9992 15.8453C100.64 14.7182 100.961 13.4365 100.961 12C100.961 10.5635 100.64 9.28177 99.9992 8.1547C99.3802 7.02762 98.5179 6.1547 97.4124 5.53591C96.3069 4.89503 95.0688 4.57459 93.6979 4.57459C92.3271 4.57459 91.089 4.89503 89.9835 5.53591C88.878 6.1547 88.0047 7.02762 87.3635 8.1547C86.7444 9.28177 86.4349 10.5635 86.4349 12C86.4349 13.4365 86.7444 14.7182 87.3635 15.8453C88.0047 16.9724 88.878 17.8564 89.9835 18.4972C91.089 19.116 92.3271 19.4254 93.6979 19.4254Z" fill="black"/>
<path d="M125.229 23.6022L120.752 17.1381H115.811V23.6022H110.438V0.397789H120.487C122.543 0.397789 124.323 0.74033 125.826 1.42541C127.352 2.1105 128.524 3.08287 129.342 4.34254C130.16 5.60221 130.569 7.09392 130.569 8.81768C130.569 10.5414 130.149 12.0331 129.309 13.2928C128.491 14.5304 127.319 15.4807 125.793 16.1436L131 23.6022H125.229ZM125.13 8.81768C125.13 7.51381 124.71 6.51934 123.87 5.83425C123.029 5.12707 121.802 4.77348 120.188 4.77348H115.811V12.8619H120.188C121.802 12.8619 123.029 12.5083 123.87 11.8011C124.71 11.0939 125.13 10.0994 125.13 8.81768Z" fill="black"/>
</svg>
