<svg width="41" height="41" viewBox="0 0 41 41" fill="none" xmlns="http://www.w3.org/2000/svg">
<g clip-path="url(#clip0_0_278)">
<path d="M34.0222 28.6645C34.0494 28.9829 33.8009 29.2565 33.4846 29.2565H7.46924C7.15373 29.2565 6.90553 28.9842 6.93156 28.6664L8.7959 5.91215C8.8191 5.6295 9.05287 5.41199 9.33372 5.41199H31.5426C31.8226 5.41199 32.0561 5.62841 32.0801 5.91024L34.0222 28.6645Z" fill="#1DCF65"/>
<path d="M36.0989 34.6011C36.1314 34.9983 35.8212 35.3387 35.4269 35.3387H5.5945C5.20103 35.3387 4.89104 34.9999 4.9222 34.6035L7.06388 7.34693C7.0918 6.99246 7.38438 6.71948 7.73618 6.71948H33.1959C33.5469 6.71948 33.8392 6.99137 33.8681 7.34475L36.0989 34.6011Z" fill="url(#paint0_linear_0_278)"/>
<path d="M19.9232 26.6953C16.0402 26.6953 12.8813 22.8631 12.8813 18.1528C12.8813 17.9075 13.0782 17.7085 13.3211 17.7085C13.564 17.7085 13.7608 17.9073 13.7608 18.1528C13.7608 22.3732 16.5253 25.8067 19.9234 25.8067C23.3214 25.8067 26.0859 22.3732 26.0859 18.1528C26.0859 17.9075 26.2827 17.7085 26.5257 17.7085C26.7686 17.7085 26.9654 17.9073 26.9654 18.1528C26.9653 22.8631 23.8062 26.6953 19.9232 26.6953Z" fill="white"/>
<path d="M24.258 18.0336C24.1455 18.0336 24.033 17.9903 23.947 17.9034C23.7753 17.73 23.7753 17.4487 23.947 17.2752L26.2259 14.9728C26.3083 14.8895 26.4201 14.8427 26.5368 14.8427C26.6535 14.8427 26.7653 14.8894 26.8477 14.9728L29.1043 17.2528C29.2761 17.4263 29.2761 17.7076 29.1043 17.8811C28.9326 18.0544 28.6542 18.0546 28.4825 17.8811L26.5367 15.9153L24.5689 17.9034C24.483 17.9903 24.3705 18.0336 24.258 18.0336Z" fill="white"/>
</g>
<defs>
<linearGradient id="paint0_linear_0_278" x1="29.8734" y1="31.3334" x2="11.5134" y2="9.90055" gradientUnits="userSpaceOnUse">
<stop stop-color="#52D67A"/>
<stop offset="1" stop-color="#5AEE87"/>
</linearGradient>
<clipPath id="clip0_0_278">
<rect width="31.16" height="30.176" fill="white" transform="translate(4.92004 5.41199)"/>
</clipPath>
</defs>
</svg>