<svg width="17" height="16" viewBox="0 0 17 16" fill="none" xmlns="http://www.w3.org/2000/svg">
<g clip-path="url(#clip0_0_1285)">
<rect x="-0.285847" y="0.0765925" width="0.418509" height="10.0442" rx="0.209255" transform="matrix(-0.866025 -0.5 -0.5 0.866025 8.75966 6.21866)" fill="#C4C4C4" stroke="black" stroke-width="0.418509"/>
<path fill-rule="evenodd" clip-rule="evenodd" d="M11.8141 1.04409L11.3502 1.20214C10.4457 1.51031 9.00919 2.13025 7.60872 2.99765C6.21611 3.86019 4.81163 4.99635 4.0279 6.3538C2.46165 9.06662 3.47162 11.0933 4.28677 11.8097L4.83931 11.1809C4.31868 10.7234 3.38946 9.13365 4.75278 6.77231C5.43384 5.59269 6.69947 4.54537 8.04945 3.70924C9.16492 3.01836 10.3055 2.49143 11.147 2.16688C11.3466 3.70526 11.4923 6.65222 10.8502 9.21728C10.514 10.5602 9.71645 11.3108 8.85366 11.7193C7.97414 12.1357 7.02052 12.1971 6.4248 12.126L6.32567 12.9571C7.04862 13.0434 8.16552 12.9712 9.21182 12.4758C10.2748 11.9725 11.2584 11.0333 11.6621 9.42054C12.4214 6.38767 12.1351 2.90087 11.8976 1.52702L11.8141 1.04409Z" fill="black"/>
</g>
<defs>
<clipPath id="clip0_0_1285">
<rect width="16" height="16" fill="white" transform="translate(0.5)"/>
</clipPath>
</defs>
</svg>
