<svg width="14" height="11" viewBox="0 0 14 11" fill="none" xmlns="http://www.w3.org/2000/svg">
<path fill-rule="evenodd" clip-rule="evenodd" d="M11.9966 3.7001C11.9153 2.01735 10.5463 0.379999 8.38991 0.710553C7.90056 0.785566 7.50139 1.07175 7.1329 1.51016C6.76626 1.94636 6.45675 2.50009 6.13162 3.08176L6.11435 3.11267C5.79162 3.68997 5.44945 4.29877 5.03285 4.75918C4.60809 5.22861 4.07615 5.57704 3.37391 5.57704C2.06602 5.57704 1.18735 5.08762 0.667057 4.56937C0.657068 5.15661 0.780365 5.83907 1.15019 6.47253C1.69861 7.41189 2.82249 8.29979 5.01271 8.58308C7.7566 8.93797 9.5111 8.11698 10.5725 7.02938C11.6505 5.9248 12.0364 4.52366 11.9966 3.7001ZM8.2889 0.0516158C10.9207 -0.351813 12.5664 1.68075 12.6625 3.66792C12.7113 4.67931 12.2549 6.25998 11.0496 7.49498C9.82779 8.74694 7.85817 9.62329 4.9272 9.2442C2.57754 8.9403 1.24823 7.96266 0.57449 6.80864C-0.0899077 5.67062 -0.0840331 4.41623 0.124938 3.60122L0.379115 2.60991L0.757507 3.56077C0.914688 3.95574 1.66813 4.91041 3.37391 4.91041C3.82436 4.91041 4.1902 4.69688 4.53853 4.31191C4.89502 3.91792 5.20125 3.37987 5.53246 2.78738C5.54315 2.76827 5.55386 2.74909 5.5646 2.72987C5.87791 2.16911 6.21444 1.56682 6.62258 1.08123C7.04934 0.573493 7.5812 0.160099 8.2889 0.0516158Z" fill="black"/>
<path fill-rule="evenodd" clip-rule="evenodd" d="M5.66637 10.9999L5.66637 9L6.33301 9L6.33301 10.9999L5.66637 10.9999Z" fill="black"/>
<path fill-rule="evenodd" clip-rule="evenodd" d="M6.99963 10.9999L6.99963 9L7.66626 9L7.66626 10.9999L6.99963 10.9999Z" fill="black"/>
<path fill-rule="evenodd" clip-rule="evenodd" d="M13.3326 4.33363H12.3326V3.66699H13.3326V4.33363Z" fill="black"/>
<path d="M10.9994 3.66712C10.9994 4.03529 10.7009 4.33376 10.3328 4.33376C9.9646 4.33376 9.66614 4.03529 9.66614 3.66712C9.66614 3.29895 9.9646 3.00049 10.3328 3.00049C10.7009 3.00049 10.9994 3.29895 10.9994 3.66712Z" fill="black"/>
</svg>
