<svg width="16" height="16" viewBox="0 0 16 16" fill="none" xmlns="http://www.w3.org/2000/svg">
<path d="M14.4789 5.92177L14.4805 5.93872L14.4831 5.95552C14.4898 5.99719 14.5558 6.45299 14.371 7.23413L14.371 7.23428C14.1052 8.3591 13.4905 9.38782 12.5851 10.2079L7.96096 14.3278L3.41646 10.2091L3.41617 10.2088C2.51009 9.38888 1.89484 8.35944 1.62897 7.23426L1.62895 7.23417C1.44407 6.45241 1.51028 5.99697 1.51686 5.95655L1.51971 5.93907L1.52131 5.92144C1.70678 3.87997 3.12805 2.5 4.81195 2.5C5.92979 2.5 6.93625 3.09522 7.52979 4.10955L7.95662 4.83897L8.39044 4.11369C8.98748 3.11552 10.0431 2.50027 11.188 2.50027C12.8721 2.50027 14.2932 3.88022 14.4789 5.92177Z" stroke="black"/>
</svg>
