<svg width="17" height="16" viewBox="0 0 17 16" fill="none" xmlns="http://www.w3.org/2000/svg">
<path fill-rule="evenodd" clip-rule="evenodd" d="M11.6187 1.0845C11.8756 0.984214 12.1535 0.973027 12.4416 1.05183C12.7745 1.14287 13.0305 1.32853 13.2062 1.58797C13.3771 1.84033 13.4595 2.14355 13.488 2.45884C13.5444 3.08353 13.3959 3.84113 13.1681 4.58688C12.7592 5.92603 12.0581 7.34151 11.5979 8.13512C12.4676 8.87729 13.118 10.0061 13.2065 11.5799C13.2533 12.4119 13.0544 13.0654 12.6872 13.5676C12.3234 14.0652 11.8153 14.3856 11.2904 14.593C10.2602 15.0001 9.08747 15 8.5704 15H8.5476C8.02982 15 6.80514 15.0001 5.72848 14.5951C5.18149 14.3893 4.64915 14.0708 4.26924 13.5733C3.88455 13.0695 3.67891 12.4118 3.73863 11.5748C3.84774 10.0455 4.51548 8.91209 5.41501 8.15731C4.95765 7.37253 4.25362 5.95639 3.83987 4.61293C3.60876 3.8625 3.45673 3.09921 3.51102 2.46983C3.53842 2.15226 3.62006 1.84669 3.79088 1.59234C3.96657 1.33073 4.22354 1.14342 4.55837 1.05183C4.84754 0.972732 5.12646 0.984317 5.38399 1.08556C5.63661 1.18487 5.84489 1.36093 6.01619 1.5735C6.35308 1.99153 6.58823 2.60246 6.75787 3.26885C7.06073 4.45861 7.18439 5.95019 7.22003 7.20117C7.66957 7.07107 8.12437 7.00704 8.55849 7.00704C8.946 7.00704 9.36224 7.0622 9.78064 7.17803C9.81729 5.92697 9.94211 4.43934 10.2458 3.25434C10.4157 2.59159 10.6509 1.98428 10.9875 1.56892C11.1587 1.35767 11.3667 1.18291 11.6187 1.0845ZM10.9135 3.4213C10.5912 4.67858 10.4768 6.33506 10.4594 7.65141L10.4529 8.1429L9.9895 7.96366C9.49897 7.77391 9.00072 7.68729 8.55849 7.68729C8.06432 7.68729 7.52983 7.78583 7.01386 7.99095L6.54709 8.17651L6.54099 7.67954C6.52484 6.36375 6.41196 4.69961 6.08998 3.43473C5.9277 2.79721 5.72158 2.30017 5.47739 1.99716C5.35816 1.84921 5.24095 1.76148 5.12933 1.71759C5.02262 1.67564 4.89854 1.66463 4.74216 1.70741C4.56337 1.75632 4.44658 1.84656 4.36476 1.96838C4.27808 2.09746 4.21846 2.28118 4.19721 2.52758C4.1542 3.02615 4.27532 3.68953 4.49873 4.41495C4.94292 5.85726 5.74616 7.4046 6.15736 8.05923L6.3244 8.32515L6.07 8.51166C5.20553 9.14547 4.52986 10.1613 4.4256 11.6227C4.37612 12.3162 4.5463 12.8065 4.81905 13.1636C5.09658 13.5271 5.50329 13.7825 5.97356 13.9594C6.92383 14.3168 8.0368 14.3197 8.55849 14.3197C9.08071 14.3197 10.136 14.3165 11.0347 13.9614C11.4782 13.7862 11.8633 13.5327 12.1289 13.1693C12.3912 12.8105 12.5582 12.3162 12.5189 11.6176C12.4337 10.1024 11.7696 9.10035 10.9431 8.48702L10.6923 8.3009L10.8566 8.03693C11.2748 7.36514 12.0714 5.82278 12.5088 4.39043C12.7288 3.66991 12.8466 3.01268 12.8021 2.51927C12.78 2.27551 12.7202 2.09386 12.6338 1.96619C12.5521 1.8456 12.4357 1.75606 12.2578 1.70741C12.102 1.66478 11.9783 1.67559 11.8719 1.71712C11.7607 1.76054 11.644 1.84742 11.5252 1.99402C11.2818 2.29437 11.0759 2.78759 10.9135 3.4213Z" fill="black"/>
</svg>
