<svg width="17" height="16" viewBox="0 0 17 16" fill="none" xmlns="http://www.w3.org/2000/svg">
<path d="M3.16912 12.9323L3.26059 13.5548C3.28533 13.7231 3.16492 13.8746 2.99849 13.8977L2.99837 13.8977C2.98388 13.8997 2.9694 13.9007 2.95499 13.9007C2.80609 13.9007 2.67238 13.7941 2.64988 13.6412L2.64988 13.6412L2.40316 11.9622L2.40315 11.9621C2.38773 11.857 2.42953 11.7525 2.51187 11.6857C2.51188 11.6857 2.51189 11.6857 2.51189 11.6857L2.5749 11.7633C2.63036 11.7183 2.7059 11.7045 2.77442 11.7267L3.16912 12.9323ZM3.16912 12.9323C3.73674 13.5084 4.40489 13.992 5.13444 14.3503C6.14753 14.8478 7.24083 15.1 8.38318 15.1C10.3098 15.1 12.1221 14.3704 13.4853 13.0452L13.4196 12.9777L13.4853 13.0452C14.8485 11.7199 15.6 9.95669 15.6 8.08116C15.6 7.02848 15.3661 6.01575 14.9048 5.07187M3.16912 12.9323L14.9048 5.07187M14.9048 5.07187C14.8308 4.92038 14.6472 4.85875 14.4953 4.92886L14.4953 4.92886C14.3418 4.99969 14.2737 5.18058 14.3485 5.33362L14.3485 5.33364C14.7696 6.1953 14.983 7.11946 14.983 8.08116C14.983 9.79353 14.2973 11.4035 13.051 12.6152C11.8045 13.827 10.1472 14.4946 8.38318 14.4946C7.33693 14.4946 6.33705 14.2639 5.41059 13.8089C4.75494 13.4869 4.15301 13.0544 3.63962 12.5395L14.9048 5.07187Z" fill="black" stroke="black" stroke-width="0.2"/>
<path d="M2.50475 11.0711C2.6581 11.0003 2.7263 10.8194 2.65153 10.6664L2.65153 10.6663C2.23044 9.80468 2.017 8.88053 2.017 7.91883C2.017 6.20646 2.70265 4.59654 3.94902 3.38483C5.19549 2.17303 6.85282 1.5054 8.61679 1.5054C10.4269 1.5054 12.1215 2.21133 13.3613 3.46082L13.8306 3.06571M2.50475 11.0711L2.46282 10.9803L2.50478 11.0711C2.50477 11.0711 2.50476 11.0711 2.50475 11.0711ZM2.50475 11.0711C2.46238 11.0907 2.41757 11.1 2.3735 11.1C2.25987 11.1 2.14874 11.0378 2.09517 10.9281C1.63395 9.98424 1.4 8.97151 1.4 7.91883C1.4 6.04329 2.15153 4.2801 3.51473 2.95476L3.51474 2.95476C4.8779 1.62956 6.69021 0.9 8.61679 0.9C10.6073 0.9 12.4721 1.68166 13.8306 3.06571M13.8306 3.06571L13.7394 2.4452C13.7147 2.2769 13.8351 2.12541 14.0015 2.10229L14.0016 2.10228C14.1672 2.07932 14.3255 2.19108 14.3501 2.35879L14.2512 2.37333L14.3501 2.35879L14.5968 4.03783L14.5968 4.03785C14.6123 4.14297 14.5705 4.24748 14.4881 4.31431C14.4881 4.31431 14.4881 4.31431 14.4881 4.31431L13.8306 3.06571Z" fill="black" stroke="black" stroke-width="0.2"/>
</svg>
