<svg width="14" height="16" viewBox="0 0 14 16" fill="none" xmlns="http://www.w3.org/2000/svg">
<path fill-rule="evenodd" clip-rule="evenodd" d="M5.38839 2.47437C5.62815 2.08219 6.12045 1.52585 6.7918 1.17047C7.44945 0.822332 8.27469 0.666949 9.23315 1.04321C10.2283 1.43386 10.658 1.97758 10.8301 2.45298C11.0085 2.94548 10.9321 3.42373 10.8156 3.69796L10.6573 4.07086L11.0273 4.23589C11.3144 4.36399 11.7644 4.6439 12.1369 5.04935C12.5076 5.45281 12.7754 5.95039 12.7754 6.52579C12.7754 7.33154 12.5289 8.00189 12.1968 8.46212C11.8543 8.93664 11.4653 9.13546 11.1953 9.13546H10.6196L10.8047 9.68063C10.9343 10.0622 10.9728 10.5997 10.7464 11.0184C10.5408 11.3987 10.0478 11.8021 8.84046 11.8021V12.6271C10.2416 12.6271 11.077 12.1416 11.4721 11.4108C11.747 10.9025 11.7725 10.3385 11.6984 9.87379C12.1443 9.72089 12.5531 9.37805 12.8657 8.94495C13.3034 8.33853 13.6004 7.4978 13.6004 6.52579C13.6004 5.679 13.204 4.99142 12.7445 4.49119C12.4079 4.12483 12.0234 3.84279 11.6936 3.65227C11.79 3.23826 11.8011 2.7112 11.6058 2.17208C11.3402 1.43862 10.7132 0.737909 9.53463 0.275243C8.31937 -0.20182 7.2426 -0.0016536 6.40581 0.441312C5.72461 0.801916 5.19994 1.32321 4.86715 1.77379C4.33673 1.63174 3.62565 1.55915 2.91448 1.72402C2.02887 1.92932 1.15901 2.50194 0.669287 3.70348C0.176316 4.91299 0.42183 6.00973 0.91062 6.86399C1.29521 7.53614 1.83485 8.0696 2.3063 8.4227C1.94935 9.12525 1.69366 10.3388 2.52151 11.5575C3.04203 12.3238 3.8305 12.6453 4.55789 12.7475C5.2804 12.8491 5.98422 12.7422 6.4237 12.6095L6.18521 11.8197C5.83974 11.924 5.25744 12.0127 4.6727 11.9305C4.09283 11.8491 3.55292 11.6076 3.20396 11.0939C2.46628 10.008 2.89683 8.93828 3.19049 8.55402L3.468 8.19088L3.07841 7.95191C2.64189 7.68416 2.02649 7.15297 1.6267 6.45426C1.23392 5.7678 1.05676 4.93865 1.43328 4.01486C1.81305 3.08311 2.45272 2.67796 3.1008 2.52772C3.77227 2.37205 4.46803 2.48956 4.89397 2.64632L5.21176 2.76327L5.38839 2.47437ZM7.0003 16.5004L7.0003 5.77517H7.82531V9.14603L9.717 7.25434L10.3004 7.83771L7.82533 10.3128L7.82531 10.3127L7.82531 16.5004H7.0003Z" fill="black"/>
</svg>
