<svg width="16" height="16" viewBox="0 0 16 16" fill="none" xmlns="http://www.w3.org/2000/svg">
<path fill-rule="evenodd" clip-rule="evenodd" d="M4.36466 5.95833C5.40928 5.95833 6.14592 5.19098 6.14592 4.375C6.14592 3.55902 5.40928 2.79167 4.36466 2.79167C3.32005 2.79167 2.58341 3.55902 2.58341 4.375C2.58341 5.19098 3.32005 5.95833 4.36466 5.95833ZM4.36466 6.75C5.78565 6.75 6.93758 5.68668 6.93758 4.375C6.93758 3.06332 5.78565 2 4.36466 2C2.94368 2 1.79175 3.06332 1.79175 4.375C1.79175 5.68668 2.94368 6.75 4.36466 6.75Z" fill="black"/>
<path fill-rule="evenodd" clip-rule="evenodd" d="M11.8854 5.95833C12.93 5.95833 13.6667 5.19098 13.6667 4.375C13.6667 3.55902 12.93 2.79167 11.8854 2.79167C10.8408 2.79167 10.1042 3.55902 10.1042 4.375C10.1042 5.19098 10.8408 5.95833 11.8854 5.95833ZM11.8854 6.75C13.3064 6.75 14.4583 5.68668 14.4583 4.375C14.4583 3.06332 13.3064 2 11.8854 2C10.4644 2 9.3125 3.06332 9.3125 4.375C9.3125 5.68668 10.4644 6.75 11.8854 6.75Z" fill="black"/>
<path fill-rule="evenodd" clip-rule="evenodd" d="M4.36458 7.14591C2.97826 7.14591 1.79167 8.33487 1.79167 9.88076V13.8751H6.9375V9.88076C6.9375 8.33487 5.75091 7.14591 4.36458 7.14591ZM7.72917 9.88076C7.72917 7.93312 6.22279 6.35425 4.36458 6.35425C2.50638 6.35425 1 7.93312 1 9.88076V14.6667H7.72917V9.88076Z" fill="black"/>
<path fill-rule="evenodd" clip-rule="evenodd" d="M11.8853 7.14591C10.499 7.14591 9.31242 8.33487 9.31242 9.88076V13.8751H14.4583V9.88076C14.4583 8.33487 13.2717 7.14591 11.8853 7.14591ZM15.2499 9.88076C15.2499 7.93312 13.7435 6.35425 11.8853 6.35425C10.0271 6.35425 8.52075 7.93312 8.52075 9.88076V14.6667H15.2499V9.88076Z" fill="black"/>
</svg>
