<svg width="40" height="40" viewBox="0 0 40 40" fill="none" xmlns="http://www.w3.org/2000/svg">
<path d="M35.4704 11.8703L35.4704 11.8703C35.8336 11.6986 36.2685 11.8519 36.4416 12.2149L35.4704 11.8703ZM35.4704 11.8703C35.1066 12.0423 34.9512 12.4761 35.1244 12.8394L35.1244 12.8394C36.1974 15.0883 36.7415 17.5007 36.7415 20.011C36.7415 24.4812 34.9937 28.683 31.8191 31.8441C28.6444 35.0053 24.4243 36.746 19.9342 36.746C17.271 36.746 14.7253 36.1443 12.3664 34.9578C10.6252 34.0819 9.03261 32.8924 7.68918 31.4725L9.05672 31.9264C9.43804 32.053 9.85123 31.848 9.97888 31.4667C10.1067 31.085 9.89917 30.6735 9.51744 30.5468L5.75962 29.2995L5.75957 29.2995C5.5203 29.2201 5.25639 29.2695 5.0623 29.4309L35.4704 11.8703Z" fill="black" stroke="black" stroke-width="0.4"/>
<path d="M32.3121 8.52793L30.9432 8.07357L30.9432 8.07356C30.5619 7.94708 30.1487 8.15191 30.0211 8.53325C29.8933 8.91498 30.1008 9.3265 30.4825 9.4532L34.2403 10.7005L34.2404 10.7005C34.3156 10.7254 34.3933 10.7377 34.4706 10.7377C34.6387 10.7377 34.8046 10.6798 34.9377 10.5691C35.1319 10.4077 35.2284 10.1575 35.1927 9.90778L35.1927 9.90774L34.5664 5.54226C34.5092 5.14396 34.1389 4.86904 33.7415 4.92546L33.7414 4.92547C33.3434 4.9821 33.0654 5.3498 33.1225 5.74812L33.379 7.53561C29.9317 3.87283 25.1623 1.8 20.0657 1.8C15.1874 1.8 10.6 3.69207 7.15016 7.12707L7.15015 7.12707C3.70047 10.5622 1.8 15.1306 1.8 19.9889C1.8 22.716 2.39166 25.3395 3.55839 27.7851C3.68357 28.0475 3.9455 28.2 4.21735 28.2C4.32236 28.2 4.42898 28.1773 4.52961 28.1296C4.89326 27.9576 5.04881 27.5238 4.87556 27.1605L4.87554 27.1605C3.80255 24.9117 3.25854 22.4993 3.25854 19.9889C3.25854 15.5187 5.00629 11.317 8.18092 8.15586C11.3556 4.99469 15.5757 3.25404 20.0657 3.25404C24.7545 3.25404 29.1403 5.15999 32.3121 8.52793Z" fill="black" stroke="black" stroke-width="0.4"/>
</svg>
